<?xml version="1.0" encoding="UTF-8" standalone="no"?>
<svg
   xmlns:dc="http://purl.org/dc/elements/1.1/"
   xmlns:cc="http://creativecommons.org/ns#"
   xmlns:rdf="http://www.w3.org/1999/02/22-rdf-syntax-ns#"
   xmlns:svg="http://www.w3.org/2000/svg"
   xmlns="http://www.w3.org/2000/svg"
   xmlns:sodipodi="http://sodipodi.sourceforge.net/DTD/sodipodi-0.dtd"
   xmlns:inkscape="http://www.inkscape.org/namespaces/inkscape"
   id="svg"
   version="1.1"
   width="400"
   height="100"
   viewBox="0 0 400 100.00001"
   sodipodi:docname="jupyter-datatables-banner.svg"
   inkscape:version="0.92.3 (2405546, 2018-03-11)">
  <metadata
     id="metadata17">
    <rdf:RDF>
      <cc:Work
         rdf:about="">
        <dc:format>image/svg+xml</dc:format>
        <dc:type
           rdf:resource="http://purl.org/dc/dcmitype/StillImage" />
        <dc:title></dc:title>
      </cc:Work>
    </rdf:RDF>
  </metadata>
  <defs
     id="defs15" />
  <sodipodi:namedview
     pagecolor="#ffffff"
     bordercolor="#666666"
     borderopacity="1"
     objecttolerance="10"
     gridtolerance="10"
     guidetolerance="10"
     inkscape:pageopacity="0"
     inkscape:pageshadow="2"
     inkscape:window-width="1920"
     inkscape:window-height="978"
     id="namedview13"
     showgrid="false"
     inkscape:zoom="2.503158"
     inkscape:cx="183.74601"
     inkscape:cy="14.969179"
     inkscape:window-x="1080"
     inkscape:window-y="1080"
     inkscape:window-maximized="1"
     inkscape:current-layer="layer4"
     showguides="true"
     inkscape:guide-bbox="true">
    <sodipodi:guide
       position="0,161.58193"
       orientation="1,0"
       id="guide872"
       inkscape:locked="false"
       inkscape:label=""
       inkscape:color="rgb(0,0,255)" />
    <sodipodi:guide
       position="401.12994,105.64972"
       orientation="1,0"
       id="guide874"
       inkscape:locked="false" />
    <sodipodi:guide
       position="200,135.02825"
       orientation="1,0"
       id="guide876"
       inkscape:locked="false" />
    <sodipodi:guide
       position="22.316384,75.141246"
       orientation="0,1"
       id="guide878"
       inkscape:locked="false" />
    <inkscape:grid
       type="xygrid"
       id="grid880" />
  </sodipodi:namedview>
  <g
     inkscape:groupmode="layer"
     id="layer3"
     inkscape:label="DTypes"
     transform="translate(0,35.429773)">
    <path
       id="path0"
       d="m 32.0035,4.6454964 c -0.247,0.643 -0.085,7.5249996 0.179,7.6269996 0.138,0.053 7.222,0.096 15.741,0.096 h 15.489 l -0.044,-3.9579996 -0.045,-3.958 -15.607,-0.043 c -14.444,-0.039 -15.615,-0.022 -15.713,0.236 m 63.434,-0.133 c -0.246,0.156 -0.302,7.4849996 -0.059,7.7279996 0.071,0.071 7.138,0.111 15.704,0.088 l 15.574,-0.043 0.084,-3.3329996 c 0.045,-1.834 0.045,-3.596 0,-3.917 l -0.084,-0.583 -15.5,-0.04 c -8.525,-0.022 -15.598,0.023 -15.719,0.1 m 63.211,0.068 c -0.045,0.117 -0.061,1.898 -0.037,3.959 l 0.045,3.7459996 h 15.667 15.667 l 0.045,-3.8219996 c 0.034,-2.946 -0.004,-3.852 -0.167,-3.955 -0.383,-0.244 -31.126,-0.172 -31.22,0.072 m 63.333,0 c -0.045,0.117 -0.061,1.898 -0.036,3.959 l 0.045,3.7459996 15.333,0.046 c 8.433,0.025 15.497,0.006 15.697,-0.042 0.366,-0.088 0.62,-6.7829996 0.29,-7.6429996 -0.142,-0.371 -31.187,-0.435 -31.329,-0.066 m 63.369,-0.087 c -0.131,0.215 -0.16,1.185 -0.135,4.585 l 0.025,3.2919996 15.625,-0.042 15.625,-0.043 0.045,-3.1539996 c 0.027,-1.84 0.117,-3.24 0.217,-3.36 0.117,-0.141 0.115,-0.24 -0.004,-0.314 -0.096,-0.06 -0.175,-0.329 -0.175,-0.599 v -0.49 h -15.573 c -8.566,0 -15.608,0.057 -15.65,0.125 m 63.223,3.876 v 4.0009996 l 15.625,-0.042 15.625,-0.043 0.045,-3.9579996 0.044,-3.959 h -15.669 -15.67 v 4.001 m -297.486,-1.667 c 0.432,0 0.403,0.217 -0.056,0.418 -0.317,0.14 -0.382,0.315 -0.425,1.134 -0.066,1.269 -0.43,1.202 -0.499,-0.091 -0.045,-0.843 -0.09,-0.939 -0.483,-1.038 -0.247,-0.062 -0.369,-0.17 -0.283,-0.252 0.182,-0.175 0.901,-0.313 1.204,-0.231 0.122,0.033 0.366,0.06 0.542,0.06 m 53.653,0.173 c 0,0.077 -0.282,0.163 -0.625,0.192 -0.853,0.07 -0.911,0.675 -0.077,0.801 0.301,0.046 0.548,0.159 0.548,0.25 0,0.092 -0.247,0.204 -0.548,0.25 -0.415,0.063 -0.562,0.177 -0.603,0.468 -0.03,0.212 -0.142,0.356 -0.25,0.32 -0.242,-0.08 -0.363,-2.299 -0.133,-2.442 0.234,-0.144 1.688,-0.006 1.688,0.161 m 9.375,-0.176 c 0.436,0.004 0.351,0.315 -0.117,0.432 -0.363,0.091 -0.415,0.205 -0.459,1.005 -0.065,1.186 -0.369,1.162 -0.433,-0.034 -0.041,-0.763 -0.111,-0.952 -0.375,-1.021 -0.713,-0.186 -0.024,-0.591 0.759,-0.446 0.183,0.034 0.464,0.063 0.625,0.064 m 53.958,0.176 c 0,0.077 -0.281,0.163 -0.625,0.192 -0.911,0.075 -1.019,0.755 -0.132,0.832 0.762,0.067 0.847,0.369 0.124,0.439 -0.407,0.039 -0.592,0.161 -0.708,0.468 -0.087,0.229 -0.234,0.369 -0.325,0.313 -0.22,-0.136 -0.217,-2.373 0.002,-2.446 0.312,-0.104 1.664,0.06 1.664,0.202 m 9.375,-0.176 c 0.436,0.004 0.352,0.315 -0.117,0.432 -0.363,0.091 -0.415,0.205 -0.458,1.005 -0.066,1.19 -0.361,1.159 -0.467,-0.049 -0.074,-0.847 -0.13,-0.968 -0.5,-1.064 -0.415,-0.108 -0.4,-0.126 0.334,-0.382 0.137,-0.048 0.4,-0.055 0.583,-0.016 0.183,0.04 0.465,0.073 0.625,0.074 m 53.958,0.176 c 0,0.077 -0.281,0.163 -0.625,0.192 -0.911,0.075 -1.018,0.755 -0.131,0.832 0.761,0.067 0.846,0.369 0.123,0.439 -0.407,0.039 -0.591,0.161 -0.708,0.468 -0.087,0.229 -0.233,0.369 -0.325,0.313 -0.219,-0.136 -0.217,-2.373 0.003,-2.446 0.311,-0.104 1.663,0.06 1.663,0.202 m 9.375,-0.176 c 0.436,0.004 0.352,0.315 -0.117,0.432 -0.364,0.092 -0.414,0.204 -0.458,1.032 -0.071,1.339 -0.436,1.35 -0.5,0.015 -0.045,-0.957 -0.085,-1.055 -0.466,-1.155 -0.416,-0.108 -0.4,-0.126 0.333,-0.382 0.137,-0.048 0.4,-0.055 0.583,-0.016 0.184,0.04 0.465,0.073 0.625,0.074 m 53.792,0.128 c 0.148,0.06 -0.023,0.141 -0.417,0.197 -0.971,0.138 -1.073,0.798 -0.135,0.875 0.817,0.068 0.824,0.37 0.01,0.438 -0.482,0.04 -0.625,0.123 -0.625,0.365 0,1.122 -0.529,0.378 -0.575,-0.808 -0.049,-1.271 0.469,-1.588 1.742,-1.067 m 9.542,-0.128 c 0.436,0.004 0.351,0.315 -0.117,0.432 -0.365,0.092 -0.415,0.204 -0.459,1.032 -0.071,1.343 -0.436,1.349 -0.499,0.008 -0.045,-0.947 -0.088,-1.058 -0.425,-1.106 -0.207,-0.029 -0.375,-0.118 -0.375,-0.197 0,-0.171 0.778,-0.314 1.25,-0.23 0.183,0.032 0.464,0.06 0.625,0.061 m 53.791,0.128 c 0.148,0.06 -0.022,0.141 -0.416,0.197 -0.948,0.134 -1.098,0.844 -0.179,0.844 0.418,0 0.595,0.075 0.595,0.25 0,0.175 -0.176,0.25 -0.583,0.25 -0.455,0 -0.583,0.068 -0.583,0.306 0,0.393 -0.14,0.527 -0.433,0.415 -0.278,-0.107 -0.334,-2.054 -0.067,-2.321 0.167,-0.167 1.202,-0.131 1.666,0.059 m 9.733,0.054 c 0.082,0.075 -0.046,0.184 -0.284,0.244 -0.393,0.099 -0.438,0.195 -0.482,1.038 -0.069,1.293 -0.434,1.36 -0.5,0.091 -0.042,-0.819 -0.108,-0.994 -0.425,-1.134 -0.206,-0.09 -0.375,-0.216 -0.375,-0.28 0,-0.286 1.744,-0.251 2.066,0.041 m -325.816,-0.013 c 0.059,0.096 -0.096,0.168 -0.365,0.169 -0.795,0.004 -1.218,0.184 -1.218,0.517 0,0.231 0.121,0.315 0.458,0.317 0.252,0.001 0.633,0.049 0.847,0.106 0.543,0.145 0.13,0.385 -0.669,0.389 -0.501,0.002 -0.623,0.069 -0.666,0.364 -0.145,0.983 -0.47,0.454 -0.47,-0.764 v -1.264 h 0.99 c 0.544,0 1.036,0.075 1.093,0.166 m 0.783,0.778 c 0.05,0.938 0.054,0.945 0.69,1.125 0.815,0.23 0.621,0.431 -0.417,0.431 h -0.806 v -1.139 c 0,-0.627 0.05,-1.189 0.111,-1.25 0.266,-0.266 0.376,-0.051 0.422,0.833 m 3.788,-0.505 c 0.701,0.891 0.156,2.063 -0.958,2.058 -0.732,-0.003 -0.881,-0.091 -1.266,-0.754 -0.744,-1.281 1.3,-2.48 2.224,-1.304 m 2.096,-0.023 c 0,0.219 -0.129,0.352 -0.375,0.387 -0.308,0.044 -0.375,-0.026 -0.375,-0.387 0,-0.36 0.067,-0.43 0.375,-0.386 0.246,0.035 0.375,0.168 0.375,0.386 m 4.623,-0.166 c -0.025,0.091 -0.193,0.168 -0.374,0.171 -0.414,0.006 -0.453,0.307 -0.051,0.39 0.165,0.034 0.483,0.206 0.707,0.382 0.389,0.306 0.414,0.307 0.57,0.022 0.09,-0.164 0.207,-0.336 0.26,-0.382 0.054,-0.046 0.181,-0.233 0.283,-0.417 0.355,-0.641 0.732,-0.513 0.732,0.249 0,0.379 0.068,0.817 0.151,0.973 0.274,0.512 -0.207,0.958 -0.678,0.629 -0.475,-0.333 -0.979,-0.341 -1.4,-0.023 -1.132,0.857 -2.186,-0.398 -1.481,-1.762 0.255,-0.493 1.404,-0.701 1.281,-0.232 m 52.46,0.74 v 0.99 l 0.625,0.051 c 0.895,0.074 0.693,0.385 -0.25,0.385 h -0.792 l -0.049,-1.208 c -0.04,-0.999 -0.004,-1.208 0.209,-1.208 0.203,0 0.257,0.208 0.257,0.99 m 3.862,-0.715 c 0.821,0.744 0.211,2.225 -0.916,2.225 -0.922,0 -1.279,-0.363 -1.279,-1.299 0,-1.122 1.349,-1.691 2.195,-0.926 m 2.369,0.487 c 0.501,1.044 0.605,1.534 0.348,1.633 -0.14,0.053 -0.245,-0.053 -0.277,-0.28 -0.084,-0.589 -1.081,-0.614 -1.302,-0.033 -0.091,0.241 -0.241,0.391 -0.333,0.335 -0.242,-0.15 -0.205,-0.637 0.078,-1.01 0.134,-0.178 0.247,-0.431 0.25,-0.561 0.02,-0.916 0.811,-0.97 1.236,-0.084 m 4.436,-0.512 c -0.084,0.167 -0.17,0.195 -0.709,0.23 -0.506,0.034 -0.315,0.33 0.247,0.384 0.978,0.095 1.087,1.467 0.128,1.609 -1.044,0.154 -1.723,-1.589 -0.875,-2.246 0.329,-0.254 1.338,-0.235 1.209,0.023 m 2.202,0.752 c 0.16,1.23 0.089,1.383 -0.577,1.248 -1.207,-0.242 -1.402,-0.45 -0.897,-0.955 0.126,-0.126 0.355,-0.473 0.51,-0.772 0.43,-0.833 0.818,-0.64 0.964,0.479 m 50.464,-0.002 c 0,0.946 0.022,1 0.403,1 0.222,0 0.522,0.045 0.666,0.1 0.484,0.186 0.086,0.4 -0.745,0.4 h -0.824 v -1.25 c 0,-1 0.05,-1.25 0.25,-1.25 0.195,0 0.25,0.222 0.25,1 m 3.862,-0.725 c 0.393,0.356 0.41,1.499 0.029,1.92 -0.397,0.439 -1.573,0.414 -1.987,-0.043 -1.095,-1.21 0.745,-2.974 1.958,-1.877 m 2.142,0.068 c 0.061,0.132 0.207,0.422 0.324,0.645 0.39,0.742 0.494,1.314 0.256,1.405 -0.132,0.051 -0.26,-0.077 -0.322,-0.321 -0.135,-0.541 -1.262,-0.614 -1.262,-0.082 0,0.435 -0.308,0.602 -0.446,0.242 -0.061,-0.16 0.014,-0.505 0.168,-0.774 0.153,-0.267 0.278,-0.567 0.278,-0.667 0,-0.576 0.783,-0.926 1.004,-0.448 m 4.663,-0.086 c 0,0.141 -0.094,0.245 -0.208,0.23 -0.447,-0.058 -0.792,0.02 -0.792,0.179 0,0.092 0.212,0.167 0.472,0.167 0.631,0 1.003,0.64 0.726,1.249 -0.207,0.453 -0.792,0.557 -1.376,0.245 -0.442,-0.237 -0.464,-1.766 -0.03,-2.095 0.414,-0.315 1.208,-0.298 1.208,0.025 m 2.075,-0.049 c 0.434,1.399 0.187,2.344 -0.533,2.036 -0.161,-0.069 -0.441,-0.134 -0.622,-0.143 -0.418,-0.023 -0.517,-0.48 -0.178,-0.819 0.142,-0.142 0.258,-0.304 0.258,-0.36 0,-0.549 0.934,-1.17 1.075,-0.714 m 50.592,0.792 c 0,0.946 0.021,1 0.403,1 0.221,0 0.521,0.045 0.665,0.1 0.485,0.186 0.087,0.4 -0.745,0.4 h -0.823 v -1.25 c 0,-1 0.05,-1.25 0.25,-1.25 0.194,0 0.25,0.222 0.25,1 m 3.862,-0.725 c 0.392,0.356 0.409,1.499 0.029,1.92 -0.723,0.798 -2.391,0.158 -2.391,-0.918 0,-1.137 1.506,-1.776 2.362,-1.002 m 2.104,-0.075 c 0.11,0.11 0.2,0.363 0.2,0.563 0,0.199 0.113,0.456 0.25,0.57 0.28,0.232 0.337,0.927 0.089,1.08 -0.089,0.055 -0.21,-0.09 -0.269,-0.323 -0.139,-0.555 -1.236,-0.644 -1.236,-0.1 0,0.178 -0.076,0.37 -0.168,0.427 -0.304,0.188 -0.39,-0.451 -0.132,-0.981 0.139,-0.286 0.351,-0.726 0.471,-0.978 0.236,-0.495 0.48,-0.574 0.795,-0.258 m 4.7,0.057 c 0,0.141 -0.093,0.245 -0.208,0.23 -0.447,-0.058 -0.792,0.02 -0.792,0.179 0,0.092 0.216,0.167 0.48,0.167 0.604,0 0.999,0.75 0.695,1.318 -0.211,0.395 -1.136,0.488 -1.475,0.149 -0.263,-0.264 -0.257,-1.749 0.009,-2.051 0.292,-0.332 1.291,-0.326 1.291,0.008 m 2.194,0.828 c 0.134,1.208 0.05,1.316 -0.882,1.132 -0.776,-0.153 -1.135,-0.77 -0.573,-0.986 0.144,-0.055 0.261,-0.17 0.261,-0.255 0,-1.224 1.057,-1.128 1.194,0.109 m 50.439,-0.04 c 0.049,0.912 0.062,0.936 0.571,0.986 0.915,0.091 0.762,0.469 -0.19,0.469 h -0.847 v -1.264 c 0,-1.542 0.386,-1.7 0.466,-0.191 m 3.896,-0.77 c 0.433,0.392 0.414,1.557 -0.031,1.938 -1.262,1.081 -3.2,-0.721 -2.039,-1.898 0.386,-0.392 1.654,-0.416 2.07,-0.04 m 2.073,0.016 c 0.121,0.161 0.223,0.414 0.226,0.563 0.003,0.149 0.122,0.368 0.264,0.486 0.276,0.229 0.27,0.979 -0.008,1.04 -0.092,0.02 -0.191,-0.132 -0.22,-0.339 -0.082,-0.572 -1.119,-0.543 -1.264,0.036 -0.136,0.543 -0.579,0.39 -0.473,-0.164 0.042,-0.222 0.181,-0.49 0.308,-0.595 0.128,-0.106 0.232,-0.297 0.232,-0.424 0,-0.699 0.579,-1.072 0.935,-0.603 m 4.732,-0.041 c 0,0.166 -0.167,0.25 -0.5,0.25 -0.275,0 -0.5,0.075 -0.5,0.166 0,0.092 0.217,0.167 0.483,0.167 0.423,0 0.85,0.551 0.85,1.096 0,0.51 -1.318,0.741 -1.687,0.296 -0.283,-0.341 -0.251,-1.623 0.049,-1.962 0.298,-0.338 1.305,-0.348 1.305,-0.013 m 2.193,0.835 c 0.133,1.199 0.064,1.293 -0.847,1.147 -0.708,-0.113 -0.977,-0.382 -0.774,-0.774 0.929,-1.797 1.45,-1.917 1.621,-0.373 m 50.44,-0.04 c 0.048,0.912 0.062,0.936 0.57,0.986 0.907,0.09 0.765,0.469 -0.176,0.469 h -0.833 l -0.056,-1.182 c -0.03,-0.649 -0.022,-1.213 0.018,-1.253 0.238,-0.236 0.433,0.165 0.477,0.98 m 3.865,-0.758 c 0.867,0.742 0.184,2.213 -1.028,2.213 -1.176,0 -1.812,-1.374 -1.012,-2.185 0.39,-0.395 1.592,-0.412 2.04,-0.028 m 2.164,0.171 c 0.12,0.252 0.331,0.692 0.471,0.978 0.257,0.53 0.172,1.169 -0.132,0.981 -0.092,-0.057 -0.168,-0.249 -0.168,-0.427 0,-0.532 -1.126,-0.459 -1.262,0.082 -0.06,0.24 -0.19,0.372 -0.318,0.322 -0.245,-0.094 -0.155,-0.634 0.189,-1.14 0.123,-0.181 0.224,-0.427 0.224,-0.548 0,-0.7 0.698,-0.873 0.996,-0.248 m 4.671,-0.208 c 0,0.166 -0.167,0.25 -0.5,0.25 -0.275,0 -0.5,0.075 -0.5,0.166 0,0.092 0.178,0.167 0.396,0.167 0.448,0 0.711,0.253 0.796,0.766 0.14,0.843 -1.094,1.252 -1.599,0.53 -0.623,-0.888 -0.137,-2.129 0.833,-2.129 0.399,0 0.574,0.076 0.574,0.25 m 2.075,-0.042 c 0.448,1.434 0.183,2.17 -0.728,2.025 -0.757,-0.122 -1.018,-0.444 -0.711,-0.881 0.103,-0.148 0.311,-0.513 0.462,-0.811 0.276,-0.547 0.85,-0.742 0.977,-0.333 m -263.64,0.341 c -0.207,0.151 -0.278,0.387 -0.24,0.791 0.085,0.894 1.358,0.894 1.443,0 0.054,-0.567 -0.261,-1.007 -0.721,-1.007 -0.103,0 -0.319,0.097 -0.482,0.216 m 63.334,0 c -0.207,0.151 -0.279,0.387 -0.24,0.791 0.085,0.894 1.357,0.894 1.442,0 0.054,-0.567 -0.26,-1.007 -0.721,-1.007 -0.102,0 -0.319,0.097 -0.481,0.216 m 63.373,-0.104 c -0.723,0.192 -0.437,1.45 0.347,1.525 0.841,0.082 1.253,-1.073 0.522,-1.464 -0.334,-0.179 -0.407,-0.184 -0.869,-0.061 m 63.316,0.005 c -0.375,0.095 -0.539,0.753 -0.3,1.201 0.232,0.433 1.25,0.495 1.408,0.085 0.33,-0.862 -0.228,-1.51 -1.108,-1.286 m 63.341,-0.002 c -0.356,0.092 -0.512,0.561 -0.371,1.121 0.13,0.518 1.286,0.649 1.471,0.167 0.329,-0.858 -0.228,-1.511 -1.1,-1.288 m -316.69,0.422 c -0.192,0.731 0.042,1.13 0.663,1.13 0.694,0 1.054,-0.558 0.739,-1.146 -0.274,-0.512 -1.267,-0.501 -1.402,0.016 m 66.337,-0.137 c -0.094,0.246 0.014,0.433 0.248,0.433 0.077,0 0.139,-0.15 0.139,-0.333 0,-0.382 -0.254,-0.447 -0.387,-0.1 m 63.25,0.045 c 0.081,0.418 0.471,0.475 0.471,0.069 0,-0.205 -0.108,-0.347 -0.263,-0.347 -0.155,0 -0.24,0.113 -0.208,0.278 m 63.304,0.055 c 0,0.185 0.111,0.333 0.25,0.333 0.139,0 0.25,-0.148 0.25,-0.333 0,-0.185 -0.111,-0.333 -0.25,-0.333 -0.139,0 -0.25,0.148 -0.25,0.333 m 63.333,0 c 0,0.185 0.111,0.333 0.25,0.333 0.139,0 0.25,-0.148 0.25,-0.333 0,-0.185 -0.111,-0.333 -0.25,-0.333 -0.139,0 -0.25,0.148 -0.25,0.333 m 63.334,0 c 0,0.185 0.111,0.333 0.25,0.333 0.139,0 0.25,-0.148 0.25,-0.333 0,-0.185 -0.111,-0.333 -0.25,-0.333 -0.139,0 -0.25,0.148 -0.25,0.333 m -316.05,0.333 c 0.21,0 0.383,-0.075 0.383,-0.166 0,-0.092 0.075,-0.167 0.167,-0.167 0.091,0 0.166,0.136 0.166,0.301 0,0.166 0.11,0.448 0.245,0.625 0.135,0.178 0.247,0.418 0.25,0.532 0.009,0.351 -0.405,0.232 -0.58,-0.166 -0.249,-0.567 -0.912,-0.585 -1.349,-0.037 -0.465,0.583 -0.84,0.414 -0.498,-0.225 0.132,-0.246 0.285,-0.59 0.341,-0.766 0.078,-0.244 0.149,-0.273 0.297,-0.125 0.107,0.107 0.367,0.194 0.578,0.194 m 6.162,0.067 c -0.094,0.246 0.014,0.433 0.249,0.433 0.076,0 0.139,-0.15 0.139,-0.333 0,-0.382 -0.254,-0.447 -0.388,-0.1 m -2.013,0.056 c -0.239,0.239 -0.084,0.711 0.234,0.711 0.216,0 0.333,-0.111 0.333,-0.316 0,-0.316 -0.38,-0.582 -0.567,-0.395 m 63.012,-0.012 c -0.244,0.245 -0.104,0.723 0.212,0.723 0.393,0 0.546,-0.213 0.409,-0.569 -0.104,-0.272 -0.424,-0.351 -0.621,-0.154 m 2.055,0.134 c 0,0.149 0.098,0.207 0.249,0.149 0.137,-0.052 0.208,-0.162 0.157,-0.244 -0.145,-0.236 -0.406,-0.174 -0.406,0.095 m 61.167,0.16 c 0,0.322 0.085,0.429 0.345,0.429 0.262,0 0.332,-0.09 0.292,-0.374 -0.079,-0.554 -0.637,-0.602 -0.637,-0.055 m 63.333,0 c 0,0.322 0.086,0.429 0.345,0.429 0.262,0 0.332,-0.09 0.292,-0.374 -0.079,-0.554 -0.637,-0.602 -0.637,-0.055 m 63.334,0 c 0,0.322 0.085,0.429 0.345,0.429 0.262,0 0.332,-0.09 0.291,-0.374 -0.079,-0.554 -0.636,-0.602 -0.636,-0.055 m 63.333,0 c 0,0.322 0.085,0.429 0.345,0.429 0.262,0 0.332,-0.09 0.292,-0.374 -0.079,-0.554 -0.637,-0.602 -0.637,-0.055"
       style="opacity:0.98000004;fill:#f0c804;fill-rule:evenodd;stroke:none"
       inkscape:connector-curvature="0" />
  </g>
  <g
     inkscape:groupmode="layer"
     id="layer2"
     inkscape:label="Bars"
     sodipodi:insensitive="true"
     transform="translate(0,35.429773)">
    <path
       style="opacity:0.98000004;fill:#045494;fill-rule:evenodd;stroke:none"
       d="m 45.146484,25.228516 c -0.354917,0.011 -0.662068,0.02964 -0.898437,0.05469 v 36.130859 c 1.620962,-0.05808 6.086842,0.02661 6.240234,0.154297 0.0094,0.0078 0.09585,0.01419 0.132813,0.02148 V 25.453125 c -0.965191,-0.173934 -3.750991,-0.278022 -5.47461,-0.224609 z"
       id="path5495"
       inkscape:connector-curvature="0" />
    <path
       style="opacity:0.98000004;fill:#045494;fill-rule:evenodd;stroke:none"
       d="m 51.927734,28.019531 v 33.453125 l 2.433594,-0.02734 c 1.788,-0.02 3.239969,0.03023 3.292969,0.115235 0.02783,0.04513 0.08004,0.07555 0.142578,0.09375 V 28.115234 c -0.279055,-0.06305 -1.545847,-0.09516 -3.130859,-0.07031 -1.201525,0.01903 -2.118601,0.0069 -2.738282,-0.02539 z"
       id="path5487"
       inkscape:connector-curvature="0" />
    <path
       style="opacity:0.98000004;fill:#045494;fill-rule:evenodd;stroke:none"
       d="m 24.474609,43.240234 c -0.54099,0.01148 -0.953522,0.03749 -1.255859,0.07227 v 18.265625 c 0.358947,-0.113243 2.742287,-0.178934 5.949219,-0.177734 V 43.357422 c -1.146543,-0.09735 -3.209491,-0.148682 -4.69336,-0.117188 z"
       id="path5485"
       inkscape:connector-curvature="0" />
    <path
       style="opacity:0.98000004;fill:#045494;fill-rule:evenodd;stroke:none"
       d="m 40.261719,43.242188 c -1.339576,0 -2.29625,0.02916 -2.863281,0.07617 v 18.355469 c 1.008502,0.0078 1.605517,0.01904 2.912109,0.02344 1.028039,0.0037 1.697869,6.92e-4 2.632812,0.002 V 43.242188 Z"
       id="path5483"
       inkscape:connector-curvature="0" />
    <path
       style="opacity:0.98000004;fill:#045494;fill-rule:evenodd;stroke:none"
       d="m 36.091797,50.820312 c -0.454059,0.0472 -1.668971,0.08418 -3.136719,0.08594 l -2.480469,0.002 v 10.5 c 0.900399,0.005 1.801872,0.0102 2.771485,0.02539 l 2.845703,0.04297 z"
       id="path5475"
       inkscape:connector-curvature="0" />
    <path
       style="opacity:0.98000004;fill:#045494;fill-rule:evenodd;stroke:none"
       d="m 64.671875,53.626953 c -0.549043,0.178472 -4.000857,0.1646 -5.566406,0.01758 v 7.828125 c 0.602507,-0.02484 1.441388,-0.03994 2.542969,-0.02734 l 3.023437,0.0332 z"
       id="path5471"
       inkscape:connector-curvature="0" />
    <path
       style="opacity:0.98000004;fill:#045494;fill-rule:evenodd;stroke:none"
       d="m 19.080078,58.408203 c -2.852,0 -3.333984,0.036 -3.333984,0.25 0,0.137 -0.115813,0.25 -0.257813,0.25 -0.213,0 -0.252609,0.208969 -0.224609,1.167969 0.019,0.641 0.09583,1.166016 0.173828,1.166016 0.078,0 0.122609,0.09398 0.09961,0.208984 -0.04049,0.200928 4.217448,0.327276 6.376953,0.261719 v -3.304688 z"
       id="path5469"
       inkscape:connector-curvature="0" />
    <path
       style="opacity:0.98000004;fill:#045494;fill-rule:evenodd;stroke:none"
       d="m 65.978516,58.408203 v 3.083985 c 0.561711,-0.04121 1.576034,-0.0605 2.820312,-0.04688 l 3.134766,0.03516 c 0.298263,-0.22623 0.279146,-0.65329 0.283203,-1.486328 0.008,-1.678 0.229297,-1.579032 -3.595703,-1.582032 z"
       id="path5467"
       inkscape:connector-curvature="0" />
    <path
       style="opacity:0.98000004;fill:#045494;fill-rule:evenodd;stroke:none"
       d="m 71.933594,61.480469 c 0,0 -0.002,0.002 -0.002,0.002 l 0.06445,-0.002 z"
       id="path5465"
       inkscape:connector-curvature="0" />
    <path
       style="opacity:0.98000004;fill:#045494;fill-rule:evenodd;stroke:none"
       d="m 71.931641,61.482422 -3.185547,0.09375 -2.767578,0.08008 v 0.01953 l 2.705078,0.0293 c 2.037824,0.02302 2.883353,0.05113 3.248047,-0.222656 z"
       id="path5463"
       inkscape:connector-curvature="0" />
    <path
       style="opacity:0.98000004;fill:#045494;fill-rule:evenodd;stroke:none"
       d="m 40.333984,61.429688 c 0.898543,0 1.532469,0.0058 1.830078,0.01562 0.0744,0.0024 0.126947,0.0047 0.160157,0.0078 0.01661,0.0015 0.02258,10e-4 0.04102,0.0078 0.0023,7.99e-4 0.0075,0.0037 0.0078,0.0039 3.6e-4,2e-4 0.01546,0.01152 0.01563,0.01172 1e-4,10e-5 0.0078,0.01357 0.0078,0.01367 0,1e-4 0.0039,0.02334 0.0039,0.02344 0,10e-5 -0.0058,0.01943 -0.0059,0.01953 -1e-4,10e-5 -0.0097,0.01162 -0.0098,0.01172 -2e-4,2e-4 -0.01134,0.0096 -0.01172,0.0098 -4e-4,1.99e-4 -0.0057,0.0031 -0.0078,0.0039 -0.0044,0.0016 -0.0086,0.0013 -0.01172,0.002 -0.02528,0.0055 -0.05804,0.0081 -0.121094,0.01172 -0.06305,0.0036 -0.151155,0.006 -0.263672,0.0098 -0.899155,0.03006 -2.369377,0.03006 -3.269531,0 -0.112393,-0.0038 -0.198769,-0.0062 -0.261719,-0.0098 -0.06296,-0.0035 -0.09776,-0.0061 -0.123047,-0.01172 -0.0032,-7e-4 -0.0074,-3.53e-4 -0.01172,-0.002 -0.0021,-8e-4 -0.0074,-0.0037 -0.0078,-0.0039 -3.7e-4,-2e-4 -0.01153,-0.0096 -0.01172,-0.0098 -1e-4,-1e-4 -0.0097,-0.01357 -0.0098,-0.01367 -1.01e-4,-1e-4 -0.0059,-0.01943 -0.0059,-0.01953 0,-9e-5 0.0039,-0.02139 0.0039,-0.02148 10e-5,-1e-4 0.0097,-0.01357 0.0098,-0.01367 1.6e-4,-1.99e-4 0.01333,-0.01152 0.01367,-0.01172 3e-4,-2e-4 0.0055,-0.0031 0.0078,-0.0039 0.01833,-0.0067 0.02635,-0.0063 0.04297,-0.0078 0.03323,-0.0031 0.08771,-0.0053 0.162109,-0.0078 0.297608,-0.0098 0.928131,-0.01563 1.826172,-0.01562 z"
       id="path5461"
       inkscape:connector-curvature="0" />
    <path
       style="opacity:0.98000004;fill:#045494;fill-rule:evenodd;stroke:none"
       d="m 64.671875,61.484375 -3.091797,0.09375 -2.474609,0.07422 v 0.02734 l 2.763672,0.01758 c 1.171349,0.007 2.14435,-0.01071 2.802734,-0.04297 z"
       id="path5459"
       inkscape:connector-curvature="0" />
    <path
       style="opacity:0.98000004;fill:#045494;fill-rule:evenodd;stroke:none"
       d="m 36.091797,61.488281 -2.845703,0.08398 c -1.140141,0.03324 0.386322,0.06589 2.845703,0.0918 z"
       id="path5457"
       inkscape:connector-curvature="0" />
    <path
       style="opacity:0.98000004;fill:#045494;fill-rule:evenodd;stroke:none"
       d="m 51.927734,61.503906 v 0.167969 c 0.634631,0.018 1.383785,0.02831 2.236328,0.02344 l 3.498047,-0.01953 -3.25,-0.09766 z"
       id="path5455"
       inkscape:connector-curvature="0" />
    <path
       style="opacity:0.98000004;fill:#045494;fill-rule:evenodd;stroke:none"
       d="m 44.248047,61.509766 v 0.189453 c 3.431638,4.9e-4 6.167652,-0.01008 6.138672,-0.03906 -0.04,-0.041 -1.595078,-0.0818 -3.455078,-0.0918 -1.2471,-0.0067 -2.122388,-0.03037 -2.683594,-0.05859 z"
       id="path5453"
       inkscape:connector-curvature="0" />
    <path
       style="opacity:0.98000004;fill:#045494;fill-rule:evenodd;stroke:none"
       d="m 59.001953,61.65625 -0.671875,0.01953 0.671875,0.0039 z"
       id="path5451"
       inkscape:connector-curvature="0" />
    <path
       style="opacity:0.98000004;fill:#045494;fill-rule:evenodd;stroke:none"
       d="m 65.878906,61.658203 -0.382812,0.01172 0.382812,0.0039 z"
       id="path5079"
       inkscape:connector-curvature="0" />
    <path
       style="opacity:0.98000004;fill:#045494;fill-rule:evenodd;stroke:none"
       d="m 182.92969,25.259766 c -1.37198,-0.01886 -2.70718,0.03392 -2.84766,0.171875 v 36.117187 c 0.42458,-0.171832 4.06,-0.183348 5.12695,-0.04297 V 25.378906 c -0.5834,-0.0634 -1.41672,-0.107284 -2.27929,-0.11914 z m -12.75586,5.816406 c -1.86075,0 -2.42175,0.01055 -2.74805,0.152344 v 30.308593 c 0.22356,-0.06871 1.38169,-0.110181 2.78906,-0.0918 l 2.33789,0.0293 V 31.152344 c -0.47759,-0.07559 -1.21066,-0.07617 -2.3789,-0.07617 z m 3.58008,3.27539 v 27.345704 c 2.35477,0.01152 4.0866,-0.0035 5.12695,-0.03906 V 34.576172 h -2.38477 c -2.23024,0 -2.70429,-0.03635 -2.74218,-0.22461 z m -19.34766,5.751954 c -0.0598,0.0051 -0.10942,0.05489 -0.16992,0.15039 -0.285,0.451 -0.19816,20.76986 0.0898,20.88086 0.141,0.054 0.20639,0.205562 0.15039,0.351562 -0.108,0.282 0.18852,0.356844 0.35352,0.08984 0.12045,-0.195414 3.81207,-0.217826 5.06836,-0.08203 V 40.412109 c -0.43802,-0.0078 -0.92424,-0.01115 -2.29297,-0.0039 -1.928,0.01 -2.7957,-0.04545 -2.9707,-0.189453 -0.0985,-0.082 -0.16877,-0.120359 -0.22852,-0.115234 z m 34.49023,6.171875 -2.48828,0.04297 v 15.384766 c 0.56953,0.02672 1.39126,0.03731 2.4375,0.03125 1.25181,-0.0071 2.17691,-0.03953 2.69141,-0.08594 V 46.316406 c -0.52685,-0.04153 -1.50402,-0.05996 -2.64063,-0.04102 z m -27.79882,2.884765 v 12.519532 c 1.22407,0.0691 3.6748,0.06556 5.1289,-0.002 V 49.244141 l -2.43945,-0.03906 z m 31.63867,9.13086 v 3.224609 c 0.40532,-0.06759 1.23423,-0.08928 2.66797,-0.07031 l 2.75781,0.03516 -2.83203,0.09766 -2.59375,0.08984 v 0.0078 l 2.67578,-0.0078 2.91797,-0.0098 V 60.076144 58.49216 l -2.875,-0.04492 c -1.46248,-0.02302 -2.38833,-0.0797 -2.71875,-0.15625 z m -20.1836,3.203125 -2.39062,0.07813 c -1.84582,0.06042 -0.8892,0.08946 2.39062,0.113281 z"
       id="path5077"
       inkscape:connector-curvature="0" />
    <path
       style="opacity:0.98000004;fill:#045494;fill-rule:evenodd;stroke:none"
       d="m 233.30273,25.447266 c -0.84132,0.02112 -1.63777,0.08392 -2.09961,0.173828 v 36.271484 c 0.69732,0.0013 1.20702,0.01051 1.96485,0.0078 0.90869,-0.0032 1.25593,-0.0136 1.9668,-0.01953 v -36.40625 c -0.50858,-0.03611 -1.16776,-0.04402 -1.83204,-0.02734 z m 11.89454,3.376953 c -0.36969,-0.002 -0.85619,0.0025 -1.49219,0.0098 l -2.24024,0.02539 v 33.037109 c 0.46135,0.03471 1.22124,0.05272 2.26758,0.04492 0.77501,-0.0054 1.48623,-0.02965 2.01758,-0.06055 V 28.84375 c -0.15646,-0.0088 -0.29632,-0.01818 -0.55273,-0.01953 z m -8.86329,6.376953 v 26.474609 l 2.28711,-0.01367 c 0.69857,-0.0042 1.23773,0.01 1.64453,0.03125 V 35.25 l -1.63085,-0.02148 z m -8.22265,6.748047 c -1.08862,0 -1.72959,0.02631 -2.04102,0.07813 v 19.814453 c 0.76174,0.02724 2.31599,0.03809 3.93164,0.04687 V 41.949219 Z m -5.04492,6.199219 c -1.23311,-0.0248 -1.83083,-0.02738 -2.12696,0.01367 v 13.466797 c 1.00767,-0.07863 3.01782,-0.05335 3.93164,0.05859 V 48.152344 c -0.444,0.01052 -1.05426,0.01149 -1.80468,-0.0039 z m 23.88476,3.300781 v 10.236328 c 0.7188,-0.107466 2.64432,-0.09116 3.57813,0.01953 V 51.449219 Z m 4.77735,0 v 10.330078 c 0.57884,-0.170409 2.6913,-0.212428 3.93164,-0.121094 V 51.449219 Z m 8.94726,3.335937 c -0.40176,-0.02844 -0.95278,-0.0021 -1.70703,0.0059 l -2.10742,0.02344 v 7.050781 c 0.028,-0.019 0.0514,-0.01604 0.084,-0.04883 0.139,-0.139 0.865,-0.190015 2.375,-0.166015 l 2.16797,0.03516 c 0.32883,-0.367602 0.25781,-1.233878 0.25781,-3.234375 0,-3.0075 0.13499,-3.580703 -1.07031,-3.666016 z m 0.8125,6.900391 -2.24219,0.09766 -2.25,0.09766 2.11133,0.0332 c 1.41186,0.02275 2.07241,0.116302 2.38086,-0.228515 z m -41.75,-6.896485 -1.77734,0.01367 c -1.355,0.011 -2.50283,0.01767 -2.54883,0.01367 -0.046,-0.003 -0.0545,1.426735 -0.0215,3.177735 0.0484,2.580252 0.0168,3.163668 -0.17187,3.335937 v 0.435547 c 0.11776,0.09076 0.22073,0.107616 0.27734,0.01563 0.062,-0.099 1.04775,-0.151859 2.46875,-0.130859 l 1.77344,0.02539 z m 16.5957,6.896485 v 0.183594 c 1.93287,-0.02438 3.08465,-0.05531 2.16211,-0.09375 z m -16.5957,0.02344 -1.82617,0.07422 -2.41602,0.0957 2.38086,0.03516 c 0.88245,0.01292 1.47557,0.0092 1.86133,-0.01758 z"
       id="path5075"
       inkscape:connector-curvature="0" />
    <path
       style="opacity:0.98000004;fill:#045494;fill-rule:evenodd;stroke:none"
       d="m 301.82617,25.257812 c -1.79554,0.0087 -3.511,0.03119 -4.45117,0.07031 v 36.384766 c 1.6141,0.0026 2.86555,-0.0047 4.45117,-0.0039 z m 1.19922,0 v 36.449219 c 1.57142,2.51e-4 2.96387,-0.0022 4.45313,-0.0039 V 25.308594 c -0.8246,-0.03859 -2.5921,-0.0515 -4.45313,-0.05078 z m -12.50195,8.148438 c -2.11298,-0.0026 -3.53162,0.0204 -4.45117,0.07031 v 28.1875 c 1.5016,0.0071 2.86988,0.01607 4.45117,0.02148 z m 1.20117,0 v 28.285156 c 1.59547,0.0049 2.83027,0.01638 4.45117,0.01953 V 33.417969 Z m -6.85156,0.203125 c -0.12764,0.04737 -0.12181,0.105077 0,0.171875 z m 0,11.570313 c -0.13726,0.02475 -2.21845,0.04306 -4.45117,0.05469 v 16.404297 c 1.33888,0.0091 2.97835,0.01198 4.45117,0.01953 z m -5.65235,0.06641 -4.45117,0.01172 v 16.337891 c 1.33665,0.0146 2.79871,0.02492 4.45117,0.03711 z m 29.45703,3.996094 v 12.460937 c 1.45927,-0.0023 3.12762,4.48e-4 4.45118,-0.0039 V 49.242188 Z m 5.65039,0.0039 v 12.453125 c 1.70141,-0.0066 3.09667,-0.01692 4.45118,-0.02734 V 49.306641 c -0.89225,-0.03527 -2.53652,-0.0569 -4.45118,-0.06055 z m 5.65235,7.828125 v 4.58789 c 2.74878,-0.02605 4.81415,-0.05825 4.87109,-0.105468 0.156,-0.129 0.20469,-0.74311 0.17969,-2.28711 l -0.0352,-2.111328 -2.70898,-0.04492 z m -48.89453,0.002 c -2.59,0 -2.66733,0.01 -2.86133,0.375 -0.188,0.353 -0.18186,0.358953 0.11914,0.126953 0.31,-0.241 0.31153,-0.236578 0.0195,0.107422 -0.323,0.379 -0.4087,3.556641 -0.0957,3.556641 0.08,0 0.12651,0.09398 0.10351,0.208984 -0.01,0.05007 2.21491,0.09128 5.19922,0.128906 v -4.503906 z"
       id="path5073"
       inkscape:connector-curvature="0" />
    <path
       style="opacity:0.98000004;fill:#045494;fill-rule:evenodd;stroke:none"
       d="m 362.54297,27.181641 v 34.083984 c 0.003,0.0057 2.9e-4,0.01652 0,0.02539 v 0.259765 c 0.22896,0.156187 1.26859,0.183314 4.17578,0.154297 l 3.44727,-0.0332 v -0.01172 l -3.58594,-0.08398 -3.91797,-0.09375 3.84375,-0.03711 c 2.04886,-0.0194 3.13882,-5.96e-4 3.66016,0.06641 V 27.253906 c -0.46171,0.02682 -1.85922,0.02715 -3.8086,-0.01172 -2.07535,-0.04138 -3.46524,-0.06197 -3.81445,-0.06055 z m -8.70508,9.054687 v 25.22461 c 0.0713,0.02817 0.12974,0.06848 0.1582,0.115234 0.15124,0.244627 5.3574,0.230094 7.34766,0.04883 V 36.251953 l -3.40039,-0.0098 c -2.12929,-0.0056 -3.77844,-0.0081 -4.10547,-0.0059 z m -1.20117,10.429688 -3.76563,0.03711 -3.38086,0.0332 v 14.769531 c 0.59926,-0.05303 2.00321,-0.07727 3.8086,-0.06055 l 3.33789,0.03125 z m 25.66601,3.734375 c -0.70798,-0.02756 -1.68837,0.0078 -3.04687,0.0078 h -3.89063 v 11.132813 c 0.50482,-0.08834 1.67515,-0.117445 4.00391,-0.0957 l 3.56836,0.0332 V 50.474609 c -0.19061,-0.03182 -0.37623,-0.06415 -0.63477,-0.07422 z m -34.01367,8.841797 -5.84961,0.03516 v 2.179687 c 0.62585,-0.0085 1.23415,-0.01908 2.02539,-0.01172 l 3.82422,0.03516 z m -12.55664,0.04687 c -0.377,0.029 -0.47014,1.402907 -0.11914,1.753907 0.156,0.156 0.156,0.199219 0,0.199219 -0.11,0 -0.20117,0.08073 -0.20117,0.177734 0,0.097 0.076,0.129265 0.16797,0.07227 0.091,-0.056 0.16601,-0.02278 0.16601,0.07422 0,0.097 0.0807,0.175782 0.17774,0.175782 0.097,0 0.13398,-0.06548 0.084,-0.146485 -0.051,-0.082 0.73625,-0.143672 1.78125,-0.138672 l 1.87305,0.0098 -1.75,0.107422 -1.75,0.109375 2.04297,0.01172 c 1.123,0.007 2.08376,-0.05372 2.13476,-0.136718 0.0211,-0.03404 0.3879,-0.05967 0.90039,-0.08008 v -2.189454 c -2.55596,0.0215 -4.17954,0.05223 -3.36914,0.07813 2.22,0.07 2.24911,0.374999 0.0371,0.375 -1.297,0 -1.69267,-0.05328 -1.76367,-0.238282 -0.05,-0.132 -0.23611,-0.227843 -0.41211,-0.214844 z m 56.44727,0.144532 c -0.0338,0.0108 -0.0758,0.05262 -0.13281,0.109375 -0.28002,0.280969 -7.28158,0.284054 -7.91016,0.02734 v 1.96875 c 0.33527,-0.07459 1.82445,-0.113521 3.91211,-0.09375 l 3.94726,0.03711 -4,0.09375 -3.85937,0.08789 v 0.0059 l 3.9668,0.03516 c 4.576,0.042 4.28551,0.12511 4.22851,-1.21289 -0.0367,-0.856501 -0.051,-1.090985 -0.15234,-1.058594 z m -43.89063,2.052734 -3.87695,0.0918 -1.97266,0.04687 v 0.06055 l 2.26172,0.01172 c 1.56906,0.0092 2.80243,-0.0094 3.58789,-0.04492 z m 34.64844,0.0059 -3.69141,0.08594 -3.88086,0.0918 v 0.0059 l 4.16993,0.02148 c 1.44183,0.0084 2.60586,-0.0073 3.40234,-0.03711 z m -26.30078,0.0059 -3.39063,0.07813 -3.75586,0.08398 v 0.0098 l 4.08985,0.02344 c 1.28104,0.0074 2.33494,-0.0013 3.05664,-0.02148 z m -15.39649,0.154297 -0.91015,0.02148 0.91015,0.0039 z"
       id="path5071"
       inkscape:connector-curvature="0" />
    <path
       style="opacity:0.98000004;fill:#045494;fill-rule:evenodd;stroke:none"
       d="m 106.63672,27.537109 c -1.51017,-0.02402 -2.64711,0.0076 -2.64258,0.07031 v 0.03125 c 0.0289,0.02737 0.0305,0.05121 0,0.06836 v 33.773438 c 0,0 0.002,0 0.002,0 l 2.75977,-0.03516 c 1.06109,-0.01404 1.77481,-0.0049 2.25,0.02734 v -33.81835 c -0.56319,-0.05867 -1.28986,-0.100018 -2.36914,-0.117188 z"
       id="path5582"
       inkscape:connector-curvature="0" />
    <path
       style="opacity:0.98000004;fill:#045494;fill-rule:evenodd;stroke:none"
       d="m 103.99414,61.480469 c -0.54174,7e-6 -0.77088,0.0059 -1.10352,0.0098 v 0.0039 c 0.23713,0.0192 0.41266,0.04105 0.42969,0.06836 0.0167,0.02712 0.20669,0.04991 0.46289,0.07031 0.0762,2.53e-4 0.13449,-2e-6 0.21094,0 z"
       id="path5580"
       inkscape:connector-curvature="0" />
    <path
       style="opacity:0.98000004;fill:#045494;fill-rule:evenodd;stroke:none"
       d="m 103.99414,61.632812 v 0.01367 c 0.587,0.03549 1.4837,0.05553 2.54492,0.04883 l 2.4668,-0.01367 v -0.02734 l -2.17578,-0.07617 -0.76953,-0.02734 c 10e-4,0.0066 0.002,0.01362 0.002,0.01367 0,1e-4 -0.006,0.01943 -0.006,0.01953 0,10e-5 -0.01,0.01162 -0.01,0.01172 -2e-4,2e-4 -0.0114,0.0096 -0.0117,0.0098 -0.001,2e-4 -0.006,0.0031 -0.008,0.0039 -0.005,0.0016 -0.009,0.0013 -0.0117,0.002 -0.0253,0.0055 -0.0581,0.0081 -0.12109,0.01172 -0.0631,0.0036 -0.15115,0.006 -0.26367,0.0098 -0.45012,0.01505 -1.04352,1.8e-5 -1.63672,0 z"
       id="path5578"
       inkscape:connector-curvature="0" />
    <path
       style="opacity:0.98000004;fill:#045494;fill-rule:evenodd;stroke:none"
       d="m 102.89062,61.490234 v -20.75 l -2.68554,0.03906 -2.425783,0.03711 v 20.66211 l 2.666013,-0.0332 c 1.02243,-0.01315 1.88209,0.0069 2.39258,0.04492 0.0154,-1.91e-4 0.0368,1.84e-4 0.0527,0 z"
       id="path5576"
       inkscape:connector-curvature="0" />
    <path
       style="opacity:0.98000004;fill:#045494;fill-rule:evenodd;stroke:none"
       d="m 119.29102,43.248047 c -0.95644,0.0042 -1.86865,0.0348 -2.47852,0.08594 v 18.205078 c 0.5818,-0.138961 3.33204,-0.16683 4.64648,-0.07617 V 43.287109 c -0.6046,-0.03001 -1.38299,-0.04249 -2.16796,-0.03906 z"
       id="path5574"
       inkscape:connector-curvature="0" />
    <path
       style="opacity:0.98000004;fill:#045494;fill-rule:evenodd;stroke:none"
       d="m 122.76562,50.076172 v 11.564453 c 0.90683,0.04908 2.87145,0.06917 5.56836,0.05664 V 50.136719 c -0.42541,-0.04882 -1.165,-0.06055 -2.60351,-0.06055 z"
       id="path5568"
       inkscape:connector-curvature="0" />
    <path
       style="opacity:0.98000004;fill:#045494;fill-rule:evenodd;stroke:none"
       d="m 110.31055,52.138672 v 9.46875 c 0.323,0.06777 1.41668,0.117902 3.0039,0.126953 0.93667,0.0054 1.63404,-0.0064 2.19141,-0.02734 v -9.464843 l -2.21875,-0.002 c -1.42767,-9.88e-4 -2.74744,-0.04642 -2.97656,-0.101562 z"
       id="path5564"
       inkscape:connector-curvature="0" />
    <path
       style="opacity:0.98000004;fill:#045494;fill-rule:evenodd;stroke:none"
       d="m 92.152344,52.210938 c -0.117438,0.003 -0.181034,0.0094 -0.275391,0.01367 v 9.273438 c 0.462298,-0.04692 1.323763,-0.06788 2.503906,-0.05273 l 2.292969,0.0293 v -9.21875 l -2.498047,-0.04492 c -0.797,-0.014 -1.512062,-0.01313 -2.023437,0 z"
       id="path5562"
       inkscape:connector-curvature="0" />
    <path
       style="opacity:0.98000004;fill:#045494;fill-rule:evenodd;stroke:none"
       d="m 85.398438,54.640625 v 6.871094 c 0.392157,-0.06259 1.256385,-0.08485 2.65039,-0.06641 l 2.519531,0.03125 V 54.65625 c -0.396407,0.04391 -1.121906,0.06939 -2.375,0.07813 -1.792023,0.01232 -2.474546,-0.0036 -2.794921,-0.09375 z"
       id="path5560"
       inkscape:connector-curvature="0" />
    <path
       style="opacity:0.98000004;fill:#045494;fill-rule:evenodd;stroke:none"
       d="m 81.556641,58.900391 c -2.224,-0.017 -2.886094,0.02817 -2.996094,0.201171 -0.078,0.123 -0.14825,0.148641 -0.15625,0.05664 -0.04,-0.461 -0.300063,0.592969 -0.289063,1.167969 l 0.01563,0.666016 0.115235,-0.75 0.117187,-0.75 0.02539,0.699218 c 0.014,0.384 -0.05444,0.745688 -0.148438,0.804688 -0.733,0.453 0.690219,0.745937 3.449219,0.710937 l 2.402344,-0.0293 V 61.6582 l -2.429688,-0.08203 -2.832031,-0.0957 2.757813,-0.03516 c 1.287289,-0.01703 2.058936,6.28e-4 2.503906,0.05273 v -2.576172 z"
       id="path5558"
       inkscape:connector-curvature="0" />
    <path
       style="opacity:0.98000004;fill:#045494;fill-rule:evenodd;stroke:none"
       d="m 129.64062,58.90625 v 2.568359 l 2.28126,-0.0293 c 2.019,-0.026 2.81284,0.01892 2.96484,0.169922 0.165,0.166 0.1982,-0.07803 0.1582,-1.207031 l -0.0488,-1.416015 -2.875,-0.04492 z"
       id="path5556"
       inkscape:connector-curvature="0" />
    <path
       style="opacity:0.98000004;fill:#045494;fill-rule:evenodd;stroke:none"
       d="m 97.779297,61.484375 v 0.185547 c 3.697873,-0.0026 4.630473,-0.02993 2.716793,-0.09375 z"
       id="path5554"
       inkscape:connector-curvature="0" />
    <path
       style="opacity:0.98000004;fill:#045494;fill-rule:evenodd;stroke:none"
       d="m 90.568359,61.490234 -2.572265,0.08594 -2.597656,0.08789 v 0.0098 l 2.636718,0.03125 c 0.0023,-0.0046 0.0058,-0.01165 0.0059,-0.01172 2e-4,-2e-4 0.01529,-0.01152 0.01563,-0.01172 0.001,-2e-4 0.0058,-0.003 0.0078,-0.0039 0.0186,-0.007 0.02637,-0.0062 0.04297,-0.0078 0.03325,-0.0032 0.08576,-0.0053 0.160156,-0.0078 0.29764,-0.01003 0.929565,-0.01563 1.828125,-0.01563 0.232188,0 0.277088,0.0032 0.472656,0.0039 z"
       id="path5552"
       inkscape:connector-curvature="0" />
    <path
       style="opacity:0.98000004;fill:#045494;fill-rule:evenodd;stroke:none"
       d="m 90.568359,61.650391 v 0.03711 c 0.20888,-0.0083 0.353348,-0.02061 0.494141,-0.0332 -0.161698,-0.0015 -0.289684,-0.0031 -0.494141,-0.0039 z"
       id="path5550"
       inkscape:connector-curvature="0" />
    <path
       style="opacity:0.98000004;fill:#045494;fill-rule:evenodd;stroke:none"
       d="m 96.673828,61.496094 -2.34375,0.08008 c -1.817233,0.0606 -0.883951,0.08687 2.34375,0.0918 z"
       id="path5548"
       inkscape:connector-curvature="0" />
    <path
       style="opacity:0.98000004;fill:#045494;fill-rule:evenodd;stroke:none"
       d="m 129.64062,61.496094 v 0.189453 c 3.23965,-0.02379 4.19385,-0.05313 2.35547,-0.113281 z"
       id="path5069"
       inkscape:connector-curvature="0" />
    <path
       style="opacity:0.98000004;fill:#045494;fill-rule:evenodd;stroke:none"
       d="m 141.668,55.461 c -0.302,0.461 -0.36,6.03 -0.064,6.213 0.078,0.048 0.142,-0.006 0.142,-0.122 0,-0.163 0.045,-0.165 0.2,-0.01 0.395,0.395 5.852,0.269 6.324,-0.146 0.216,-0.19 0.299,-0.298 0.185,-0.24 -0.185,0.094 -0.289,-2.181 -0.266,-5.794 0.001,-0.205 -0.052,-0.244 -0.171,-0.125 -0.241,0.242 -5.647,0.23 -5.889,-0.012 -0.135,-0.135 -0.259,-0.072 -0.461,0.236"
       id="path5055"
       inkscape:connector-curvature="0" />
    <path
       style="opacity:0.98000004;fill:#045494;fill-rule:evenodd;stroke:none"
       d="m 205.03,58.094 c -0.326,0.189 -0.406,3.021 -0.099,3.506 0.108,0.17 0.145,0.144 0.151,-0.108 0.007,-0.306 0.021,-0.31 0.178,-0.041 0.148,0.254 0.448,0.291 2.314,0.291 2.262,0 2.872,-0.091 2.478,-0.371 -0.161,-0.114 -0.125,-0.137 0.131,-0.081 0.342,0.074 0.354,0.02 0.365,-1.652 l 0.011,-1.729 -2.615,0.005 c -1.508,0.003 -2.741,0.079 -2.914,0.18"
       id="path5053"
       inkscape:connector-curvature="0" />
    <path
       style="opacity:0.98000004;fill:#045494;fill-rule:evenodd;stroke:none"
       d="m 382.048,59.367 c 1.128,0.029 2.928,0.029 4,0 1.071,-0.029 0.148,-0.053 -2.052,-0.053 -2.2,0 -3.077,0.024 -1.948,0.053"
       id="path5051"
       inkscape:connector-curvature="0" />
    <path
       style="opacity:0.98000004;fill:#045494;fill-rule:evenodd;stroke:none"
       d="m 274.08,61.495 c 0,0.028 -1.182,0.044 -2.625,0.034 l -2.625,-0.016 2.416,-0.094 c 2.2,-0.085 2.834,-0.068 2.834,0.076"
       id="path5045"
       inkscape:connector-curvature="0" />
    <path
       style="opacity:0.98000004;fill:#045494;fill-rule:evenodd;stroke:none"
       d="m 146.538,61.533 c -0.802,0.031 -2.115,0.031 -2.917,0 -0.802,-0.03 -0.145,-0.055 1.459,-0.055 1.604,0 2.26,0.025 1.458,0.055"
       id="path5029"
       inkscape:connector-curvature="0" />
    <path
       style="opacity:0.98000004;fill:#045494;fill-rule:evenodd;stroke:none"
       d="m 208.795,61.532 c -0.569,0.033 -1.544,0.033 -2.167,0.001 -0.622,-0.032 -0.157,-0.059 1.035,-0.059 1.192,-10e-4 1.701,0.026 1.132,0.058"
       id="path5021"
       inkscape:connector-curvature="0" />
    <path
       style="opacity:0.98000004;fill:#045494;fill-rule:evenodd;stroke:none"
       d="m 323.546,61.533 c -0.706,0.031 -1.906,0.031 -2.667,0 -0.76,-0.031 -0.183,-0.056 1.284,-0.057 1.467,0 2.089,0.026 1.383,0.057"
       id="path5011"
       inkscape:connector-curvature="0" />
    <path
       style="opacity:0.98000004;fill:#045494;fill-rule:evenodd;stroke:none"
       d="m 156.205,61.7 c 0.756,0.031 1.993,0.031 2.75,0 0.756,-0.031 0.137,-0.056 -1.375,-0.056 -1.513,0 -2.132,0.025 -1.375,0.056"
       id="path5003"
       inkscape:connector-curvature="0" />
  </g>
  <g
     inkscape:groupmode="layer"
     id="layer1"
     inkscape:label="Padding"
     transform="translate(0,35.429773)">
    <path
       style="opacity:0.96399997;fill:#000000;fill-opacity:1;stroke-width:0.10305337;stroke-miterlimit:4;stroke-dasharray:none"
       d="m 24.9445,58.568496 c -0.893,0.03 -2.356,0.03 -3.25,0 -0.893,-0.03 -0.162,-0.054 1.625,-0.054 1.788,0 2.519,0.024 1.625,0.054"
       id="path5266"
       inkscape:connector-curvature="0" />
  </g>
  <g
     inkscape:groupmode="layer"
     id="layer4"
     inkscape:label="Border"
     transform="translate(0,35.429773)">
    <path
       style="opacity:0.98000004;fill:#000000;fill-opacity:0.99173554;fill-rule:evenodd;stroke:none;stroke-width:0.09256878;stroke-miterlimit:4;stroke-dasharray:none"
       d="m 4.0735,0.03592483 v 0.4995716 h 195.917 195.916 v -0.4995716 -0.5004284 H 199.9905 4.0735 v 0.5004284"
       id="path6010"
       inkscape:connector-curvature="0" />
    <path
       style="opacity:0.98000004;fill:#000000;fill-opacity:0.99173554;fill-rule:evenodd;stroke:none;stroke-width:0.08661337;stroke-miterlimit:4;stroke-dasharray:none"
       d="m 4.0735,16.868871 v 0.499625 h 195.927 195.926 l -0.051,-0.468867 -0.052,-0.468867 -195.875,-0.03076 -195.875,-0.03151 v 0.500375"
       id="path5886"
       inkscape:connector-curvature="0" />
    <path
       style="opacity:0.98000004;fill:#000000;fill-opacity:0.99173554;fill-rule:evenodd;stroke:none;stroke-width:0.1;stroke-miterlimit:4;stroke-dasharray:none"
       d="m 218.9765,55.202496 c 0,1.787 0.025,2.518 0.055,1.625 0.03,-0.894 0.03,-2.357 0,-3.25 -0.03,-0.894 -0.055,-0.163 -0.055,1.625"
       id="path1"
       inkscape:connector-curvature="0" />
    <text
       xml:space="preserve"
       style="font-style:normal;font-variant:normal;font-weight:normal;font-stretch:normal;font-size:41.9721756px;line-height:1.25;font-family:'Anonymous Pro for Powerline';-inkscape-font-specification:'Anonymous Pro for Powerline';letter-spacing:0px;word-spacing:0px;fill:#000000;fill-opacity:1;stroke:none;stroke-width:1.04930437"
       x="125.1637"
       y="-16.477243"
       id="text870"
       transform="scale(0.9530123,1.0493044)"><tspan
         sodipodi:role="line"
         id="tspan868"
         x="125.1637"
         y="-16.477243"
         style="font-style:normal;font-variant:normal;font-weight:normal;font-stretch:normal;font-size:18.18794441px;font-family:'Anonymous Pro for Powerline';-inkscape-font-specification:'Anonymous Pro for Powerline';stroke-width:1.04930437">Jupyter DataTables</tspan></text>
  </g>
</svg>
